HIERARCHY
ROOT Pelvis
{
	OFFSET 0.000000 0.000000 0.000000
	CHANNELS 6 Xposition Yposition Zposition Xrotation Yrotation Zrotation
	JOINT LeftUpLeg_virtual
	{
		OFFSET 0.000000 0.000000 0.000000
		CHANNELS 3 Xrotation Yrotation Zrotation
		JOINT LeftUpLeg
		{
			OFFSET 18.735201 -5.666702 -4.541200
			CHANNELS 3 Xrotation Yrotation Zrotation
			JOINT LeftLeg
			{
				OFFSET -0.021200 -31.938179 0.493100
				CHANNELS 3 Xrotation Yrotation Zrotation
				JOINT LeftFoot
				{
					OFFSET 0.021200 -31.938179 -4.336299
					CHANNELS 3 Xrotation Yrotation Zrotation
					JOINT LeftToeBase
					{
						OFFSET 0.943001 -26.722000 15.023500
						CHANNELS 3 Xrotation Yrotation Zrotation
						End Site
						{
							OFFSET 0 0 0
						}
					}
				}
			}
		}
	}
	JOINT RightUpLeg_virtual
	{
		OFFSET 0.000000 0.000000 0.000000
		CHANNELS 3 Xrotation Yrotation Zrotation
		JOINT RightUpLeg
		{
			OFFSET -18.735201 -5.666702 -4.541200
			CHANNELS 3 Xrotation Yrotation Zrotation
			JOINT RightLeg
			{
				OFFSET 0.018946 -31.938133 0.493100
				CHANNELS 3 Xrotation Yrotation Zrotation
				JOINT RightFoot
				{
					OFFSET -0.018946 -31.938126 -4.336299
					CHANNELS 3 Xrotation Yrotation Zrotation
					JOINT RightToeBase
					{
						OFFSET -0.943001 -26.722004 15.023500
						CHANNELS 3 Xrotation Yrotation Zrotation
						End Site
						{
							OFFSET 0 0 0
						}
					}
				}
			}
		}
	}
	JOINT Hips_virtual
	{
		OFFSET 0.000000 0.000000 0.000000
		CHANNELS 3 Xrotation Yrotation Zrotation
		JOINT Hips
		{
			OFFSET -0.000000 -0.000000 -0.000000
			CHANNELS 3 Xrotation Yrotation Zrotation
			JOINT Spine
			{
				OFFSET 0.000000 10.199997 -0.299500
				CHANNELS 3 Xrotation Yrotation Zrotation
				JOINT Spine1
				{
					OFFSET 0.000000 11.900002 -1.516600
					CHANNELS 3 Xrotation Yrotation Zrotation
					JOINT Spine2
					{
						OFFSET 0.000000 13.600006 -2.842500
						CHANNELS 3 Xrotation Yrotation Zrotation
						JOINT Neck_virtual
						{
							OFFSET 0.000000 0.000000 0.000000
							CHANNELS 3 Xrotation Yrotation Zrotation
							JOINT Neck
							{
								OFFSET 0.000000 9.624100 -2.890100
								CHANNELS 3 Xrotation Yrotation Zrotation
								JOINT Head
								{
									OFFSET 0.000000 14.068802 -1.351900
									CHANNELS 3 Xrotation Yrotation Zrotation
									End Site
									{
										OFFSET 0 0 0
									}
								}
							}
						}
						JOINT LeftShoulder_virtual
						{
							OFFSET 0.000000 0.000000 0.000000
							CHANNELS 3 Xrotation Yrotation Zrotation
							JOINT LeftShoulder
							{
								OFFSET 15.263000 10.923401 -0.547700
								CHANNELS 3 Xrotation Yrotation Zrotation
								JOINT LeftArm
								{
									OFFSET 25.438599 -2.830597 -13.032500
									CHANNELS 3 Xrotation Yrotation Zrotation
									JOINT LeftForeArm
									{
										OFFSET 29.960503 0.000000 0.000000
										CHANNELS 3 Xrotation Yrotation Zrotation
										JOINT LeftHand
										{
											OFFSET 27.849251 0.000000 0.000000
											CHANNELS 3 Xrotation Yrotation Zrotation
											End Site
											{
												OFFSET 0 0 0
											}
										}
									}
								}
							}
						}
						JOINT RightShoulder_virtual
						{
							OFFSET 0.000000 0.000000 0.000000
							CHANNELS 3 Xrotation Yrotation Zrotation
							JOINT RightShoulder
							{
								OFFSET -15.263000 10.923401 -0.547700
								CHANNELS 3 Xrotation Yrotation Zrotation
								JOINT RightArm
								{
									OFFSET -25.438599 -2.830597 -13.032500
									CHANNELS 3 Xrotation Yrotation Zrotation
									JOINT RightForeArm
									{
										OFFSET -29.960503 0.000000 0.000000
										CHANNELS 3 Xrotation Yrotation Zrotation
										JOINT RightHand
										{
											OFFSET -27.849251 0.000000 0.000000
											CHANNELS 3 Xrotation Yrotation Zrotation
											End Site
											{
												OFFSET 0 0 0
											}
										}
									}
								}
							}
						}
					}
				}
			}
		}
	}
}
MOTION
Frames: 6
Frame Time: 0.03333333
1.633202 87.424698 10.227058 0.000000 0.000000 0.000000 -25.813276 -46.837435 -15.425229 -23.110532 -18.512166 20.319891 40.427367 -14.801711 -3.877453 5.700446 -14.174442 -29.958828 0.000000 0.000000 0.000000 -26.572250 -44.447183 -14.583593 16.459166 -10.034780 -22.943606 20.319519 -4.040522 1.859841 -24.172933 -1.638877 29.442193 0.000000 0.000000 0.000000 -26.439881 -45.145730 -14.998493 -0.811374 0.003343 -0.022087 22.847174 4.300218 -2.790643 6.838972 7.445058 0.359236 0.000000 0.000000 0.000000 0.979982 9.577250 0.608646 0.399207 -0.170570 0.278125 0.000000 0.000000 0.000000 6.817316 7.982866 1.934262 -0.359873 -8.020470 -18.083643 -0.867698 -11.178914 -66.512983 26.531226 -58.170788 36.615592 0.000000 0.000000 0.000000 0.315417 10.009801 0.201621 8.240492 22.322851 9.934498 2.898518 -35.577789 83.528610 34.742427 58.358277 -36.522343 0.000000 0.000000 0.000000 
1.392278 87.336197 10.694229 0.000000 0.000000 0.000000 -25.658799 -47.232981 -15.504869 -23.533241 -18.569602 20.816069 40.215980 -13.287010 -4.202662 7.444888 -13.282897 -27.098122 0.000000 0.000000 0.000000 -26.122456 -44.726077 -14.518976 15.027270 -8.708793 -22.673385 21.385112 -4.343733 1.483416 -23.083227 -1.064006 27.059005 0.000000 0.000000 0.000000 -26.215992 -45.588176 -14.947814 -0.902717 0.103956 -0.116658 22.667668 4.566112 -2.534777 6.837030 7.759755 0.036705 0.000000 0.000000 0.000000 0.813307 9.748206 0.410941 0.559043 -0.156956 0.324706 0.000000 0.000000 0.000000 7.065012 8.249914 1.490614 -0.164796 -7.695000 -17.389848 -1.088492 -10.372032 -66.903083 26.024009 -57.762527 35.955110 0.000000 0.000000 0.000000 0.925143 10.244956 -0.132509 8.223541 21.163268 10.083006 2.534388 -35.383003 82.902719 33.826164 58.359540 -35.372358 0.000000 0.000000 0.000000 
1.281267 87.101570 10.212814 0.000000 0.000000 0.000000 -24.470479 -47.672565 -15.226011 -24.035688 -18.542458 20.751079 37.313986 -11.112171 -4.231759 8.108380 -11.074114 -23.787732 0.000000 0.000000 0.000000 -24.679157 -45.246967 -14.247548 11.981875 -7.878744 -22.312090 23.666749 -4.450021 1.595106 -21.002499 0.393749 24.444407 0.000000 0.000000 0.000000 -24.632708 -45.951173 -14.485093 -0.903714 0.184654 -0.195732 22.108849 4.703074 -2.442975 7.354224 8.118992 -0.412374 0.000000 0.000000 0.000000 1.605237 10.013595 -0.004558 1.016342 -0.209203 0.540620 0.000000 0.000000 0.000000 7.550418 8.474181 0.768056 -0.143767 -8.032814 -15.561307 -1.473596 -9.567410 -68.030037 23.677233 -57.962905 33.961579 0.000000 0.000000 0.000000 1.817920 10.620078 -0.462404 8.220271 20.654991 10.619241 -0.689734 -33.406185 79.545312 31.071517 57.636285 -32.331496 0.000000 0.000000 0.000000 
1.083989 86.830940 8.915997 0.000000 0.000000 0.000000 -22.111950 -47.758909 -14.458646 -24.126477 -18.140673 20.608766 32.165396 -9.196688 -4.148330 7.239749 -8.489492 -21.174469 0.000000 0.000000 0.000000 -22.244208 -45.299696 -13.579076 6.577473 -7.909882 -22.069007 29.069316 -3.773865 2.531588 -18.185669 3.031731 22.549777 0.000000 0.000000 0.000000 -21.992936 -46.034345 -13.721567 -0.850706 0.199533 -0.205963 21.352648 4.500317 -2.411138 8.390781 8.354004 -0.851238 0.000000 0.000000 0.000000 3.119505 10.257547 -0.457839 1.615200 -0.313390 0.899869 0.000000 0.000000 0.000000 8.435317 8.582666 -0.094845 -0.277535 -8.981870 -12.753797 -2.410035 -8.799124 -69.345756 19.113692 -58.141644 30.259111 0.000000 0.000000 0.000000 3.036461 10.979147 -0.745588 8.374141 20.714792 11.154707 -5.698953 -29.697106 74.120796 28.375579 57.308347 -29.341861 0.000000 0.000000 0.000000 
0.880002 86.427452 6.947033 0.000000 0.000000 0.000000 -18.199293 -46.621509 -12.826453 -24.695833 -16.693587 20.976083 25.852510 -7.615288 -4.659375 7.058156 -6.240504 -19.494074 0.000000 0.000000 0.000000 -18.853943 -44.297820 -12.417914 -1.512355 -8.386437 -22.126534 38.200978 -1.635671 4.050960 -14.787807 7.262081 21.643191 0.000000 0.000000 0.000000 -18.398744 -45.303344 -12.539139 -0.806719 0.103755 -0.150423 20.463431 3.847756 -2.055843 9.795626 8.238544 -1.189479 0.000000 0.000000 0.000000 5.045424 10.336777 -0.824722 2.171188 -0.469756 1.312917 0.000000 0.000000 0.000000 9.706089 8.412869 -0.963313 -0.486821 -10.448283 -9.491176 -3.958827 -7.850919 -70.212371 12.741205 -57.955050 25.197502 0.000000 0.000000 0.000000 4.578155 11.134744 -0.965137 8.783809 20.928178 11.080035 -11.225128 -24.658977 67.738456 26.935816 58.344336 -27.752705 0.000000 0.000000 0.000000 
0.631436 85.662239 4.635033 0.000000 0.000000 0.000000 -13.179043 -44.010720 -10.595768 -27.433386 -14.064903 21.889196 20.489454 -6.432755 -6.050507 9.217902 -4.356049 -18.163216 0.000000 0.000000 0.000000 -14.484608 -42.053932 -10.771555 -11.567588 -8.963209 -22.139179 49.186132 2.016918 5.485491 -11.061265 12.816655 21.157879 0.000000 0.000000 0.000000 -13.865781 -43.335778 -10.871913 -0.824652 -0.048191 -0.060740 19.688418 2.822671 -1.144516 11.496036 7.744965 -1.411861 0.000000 0.000000 0.000000 7.129648 10.125183 -1.076025 2.530666 -0.674381 1.708289 0.000000 0.000000 0.000000 11.280993 7.893966 -1.725841 -0.738046 -12.241876 -6.424932 -5.744855 -6.794631 -70.072837 5.639394 -57.708296 19.650883 0.000000 0.000000 0.000000 6.385522 10.948718 -1.144299 9.526602 21.148303 10.059264 -16.319339 -19.236777 61.607883 27.745401 61.121737 -28.681505 0.000000 0.000000 0.000000 
